<svg xmlns="http://www.w3.org/2000/svg" width="1200" height="630" viewBox="0 0 1200 630">
  <defs>
    <linearGradient id="bg" x1="0" x2="1" y1="0" y2="1">
      <stop offset="0" stop-color="#071225"/>
      <stop offset="0.55" stop-color="#050B18"/>
      <stop offset="1" stop-color="#06101F"/>
    </linearGradient>
    <radialGradient id="glow" cx="72%" cy="20%" r="55%">
      <stop offset="0" stop-color="#22D3EE" stop-opacity=".34"/>
      <stop offset="1" stop-color="#22D3EE" stop-opacity="0"/>
    </radialGradient>
  </defs>
  <rect width="1200" height="630" fill="url(#bg)"/>
  <rect width="1200" height="630" fill="url(#glow)"/>
  <g opacity=".18" stroke="#94A3B8">
    <path d="M0 90h1200M0 180h1200M0 270h1200M0 360h1200M0 450h1200M0 540h1200"/>
    <path d="M120 0v630M240 0v630M360 0v630M480 0v630M600 0v630M720 0v630M840 0v630M960 0v630M1080 0v630"/>
  </g>
  <rect x="80" y="86" width="1040" height="458" rx="34" fill="rgba(255,255,255,.06)" stroke="rgba(255,255,255,.14)"/>
  <text x="122" y="172" fill="#22D3EE" font-family="Inter, Arial, sans-serif" font-size="30" font-weight="700">Clickdine.in</text>
  <text x="122" y="286" fill="#F8FAFC" font-family="Inter, Arial, sans-serif" font-size="72" font-weight="800">AI Automation Agency</text>
  <text x="122" y="372" fill="#F8FAFC" font-family="Inter, Arial, sans-serif" font-size="72" font-weight="800">for Corporate Teams</text>
  <text x="122" y="452" fill="#94A3B8" font-family="Inter, Arial, sans-serif" font-size="34">AI employees and automation systems for modern companies</text>
  <circle cx="978" cy="170" r="58" fill="#3B82F6" opacity=".9"/>
  <circle cx="1044" cy="238" r="42" fill="#22D3EE" opacity=".9"/>
</svg>
